<svg xmlns="http://www.w3.org/2000/svg" viewBox="0 0 500 500"><rect x="10" y="10" width="30" height="30" fill="blue"/><rect x="50" y="10" width="30" height="30" fill="blue"/><rect x="90" y="10" width="30" height="30" fill="blue"/><rect x="130" y="10" width="30" height="30" fill="blue"/><rect x="170" y="10" width="30" height="30" fill="blue"/><rect x="10" y="50" width="30" height="30" fill="blue"/><rect x="50" y="50" width="30" height="30" fill="blue"/><rect x="90" y="50" width="30" height="30" fill="blue"/><rect x="130" y="50" width="30" height="30" fill="blue"/><rect x="170" y="50" width="30" height="30" fill="blue"/><rect x="10" y="90" width="30" height="30" fill="blue"/><rect x="50" y="90" width="30" height="30" fill="blue"/><rect x="90" y="90" width="30" height="30" fill="blue"/><rect x="130" y="90" width="30" height="30" fill="blue"/><rect x="170" y="90" width="30" height="30" fill="blue"/><rect x="10" y="130" width="30" height="30" fill="blue"/><rect x="50" y="130" width="30" height="30" fill="blue"/><rect x="90" y="130" width="30" height="30" fill="blue"/><rect x="130" y="130" width="30" height="30" fill="blue"/><rect x="170" y="130" width="30" height="30" fill="blue"/><rect x="10" y="170" width="30" height="30" fill="blue"/><rect x="50" y="170" width="30" height="30" fill="blue"/><rect x="90" y="170" width="30" height="30" fill="blue"/><rect x="130" y="170" width="30" height="30" fill="blue"/><rect x="170" y="170" width="30" height="30" fill="blue"/><line x1="10" y1="10" x2="490" y2="10" style="stroke:rgb(0,0,0);stroke-width:2"/><line x1="10" y1="50" x2="490" y2="50" style="stroke:rgb(0,0,0);stroke-width:2"/><line x1="10" y1="90" x2="490" y2="90" style="stroke:rgb(0,0,0);stroke-width:2"/><line x1="10" y1="130" x2="490" y2="130" style="stroke:rgb(0,0,0);stroke-width:2"/><line x1="10" y1="170" x2="490" y2="170" style="stroke:rgb(0,0,0);stroke-width:2"/><line x1="10" y1="10" x2="10" y2="490" style="stroke:rgb(0,0,0);stroke-width:2"/><line x1="50" y1="10" x2="50" y2="490" style="stroke:rgb(0,0,0);stroke-width:2"/><line x1="90" y1="10" x2="90" y2="490" style="stroke:rgb(0,0,0);stroke-width:2"/><line x1="130" y1="10" x2="130" y2="490" style="stroke:rgb(0,0,0);stroke-width:2"/><line x1="170" y1="10" x2="170" y2="490" style="stroke:rgb(0,0,0);stroke-width:2"/></svg>